<mxfile host="app.diagrams.net" modified="2024-01-01T10:27:58.049Z" agent="Mozilla/5.0 (Windows NT 10.0; Win64; x64) AppleWebKit/537.36 (KHTML, like Gecko) Chrome/120.0.0.0 Safari/537.36" etag="suNyIaUt2d8u8dmInvUY" version="22.1.15" type="github">
  <diagram name="Page-1" id="r0tMF0hjpqj20LN4tqHR">
    <mxGraphModel dx="1247" dy="817" grid="1" gridSize="10" guides="1" tooltips="1" connect="1" arrows="1" fold="1" page="1" pageScale="1" pageWidth="850" pageHeight="1100" math="0" shadow="0">
      <root>
        <mxCell id="0" />
        <mxCell id="1" parent="0" />
        <mxCell id="jaTOSob7eUF27mEvSC8X-1" value="" style="shape=umlLifeline;perimeter=lifelinePerimeter;whiteSpace=wrap;html=1;container=1;dropTarget=0;collapsible=0;recursiveResize=0;outlineConnect=0;portConstraint=eastwest;newEdgeStyle={&quot;curved&quot;:0,&quot;rounded&quot;:0};participant=umlActor;" vertex="1" parent="1">
          <mxGeometry x="80" y="120" width="20" height="1040" as="geometry" />
        </mxCell>
        <mxCell id="jaTOSob7eUF27mEvSC8X-8" value="" style="html=1;points=[[0,0,0,0,5],[0,1,0,0,-5],[1,0,0,0,5],[1,1,0,0,-5]];perimeter=orthogonalPerimeter;outlineConnect=0;targetShapes=umlLifeline;portConstraint=eastwest;newEdgeStyle={&quot;curved&quot;:0,&quot;rounded&quot;:0};" vertex="1" parent="jaTOSob7eUF27mEvSC8X-1">
          <mxGeometry x="5" y="80" width="10" height="930" as="geometry" />
        </mxCell>
        <mxCell id="jaTOSob7eUF27mEvSC8X-2" value="Patient" style="rounded=1;whiteSpace=wrap;html=1;" vertex="1" parent="1">
          <mxGeometry x="30" y="30" width="120" height="60" as="geometry" />
        </mxCell>
        <mxCell id="jaTOSob7eUF27mEvSC8X-3" value="PsycPlus Staff" style="shape=umlLifeline;perimeter=lifelinePerimeter;whiteSpace=wrap;html=1;container=1;dropTarget=0;collapsible=0;recursiveResize=0;outlineConnect=0;portConstraint=eastwest;newEdgeStyle={&quot;curved&quot;:0,&quot;rounded&quot;:0};" vertex="1" parent="1">
          <mxGeometry x="207" y="120" width="100" height="1040" as="geometry" />
        </mxCell>
        <mxCell id="jaTOSob7eUF27mEvSC8X-5" value="" style="html=1;points=[[0,0,0,0,5],[0,1,0,0,-5],[1,0,0,0,5],[1,1,0,0,-5]];perimeter=orthogonalPerimeter;outlineConnect=0;targetShapes=umlLifeline;portConstraint=eastwest;newEdgeStyle={&quot;curved&quot;:0,&quot;rounded&quot;:0};" vertex="1" parent="jaTOSob7eUF27mEvSC8X-3">
          <mxGeometry x="45" y="80" width="10" height="930" as="geometry" />
        </mxCell>
        <mxCell id="jaTOSob7eUF27mEvSC8X-4" value="System" style="shape=umlLifeline;perimeter=lifelinePerimeter;whiteSpace=wrap;html=1;container=1;dropTarget=0;collapsible=0;recursiveResize=0;outlineConnect=0;portConstraint=eastwest;newEdgeStyle={&quot;curved&quot;:0,&quot;rounded&quot;:0};" vertex="1" parent="1">
          <mxGeometry x="337" y="120" width="100" height="1040" as="geometry" />
        </mxCell>
        <mxCell id="jaTOSob7eUF27mEvSC8X-10" value="" style="html=1;points=[[0,0,0,0,5],[0,1,0,0,-5],[1,0,0,0,5],[1,1,0,0,-5]];perimeter=orthogonalPerimeter;outlineConnect=0;targetShapes=umlLifeline;portConstraint=eastwest;newEdgeStyle={&quot;curved&quot;:0,&quot;rounded&quot;:0};" vertex="1" parent="jaTOSob7eUF27mEvSC8X-4">
          <mxGeometry x="45" y="80" width="10" height="930" as="geometry" />
        </mxCell>
        <mxCell id="jaTOSob7eUF27mEvSC8X-30" value="Basic/Plus" style="html=1;verticalAlign=bottom;endArrow=block;curved=0;rounded=0;exitX=1;exitY=0;exitDx=0;exitDy=5;exitPerimeter=0;" edge="1" parent="jaTOSob7eUF27mEvSC8X-4" source="jaTOSob7eUF27mEvSC8X-10" target="jaTOSob7eUF27mEvSC8X-4">
          <mxGeometry relative="1" as="geometry">
            <mxPoint x="-65" y="95" as="sourcePoint" />
            <mxPoint x="110" y="180" as="targetPoint" />
            <Array as="points">
              <mxPoint x="110" y="85" />
              <mxPoint x="110" y="140" />
            </Array>
          </mxGeometry>
        </mxCell>
        <mxCell id="jaTOSob7eUF27mEvSC8X-6" value="Patient Identification" style="html=1;verticalAlign=bottom;endArrow=block;curved=0;rounded=0;entryX=0;entryY=0;entryDx=0;entryDy=5;exitX=1;exitY=0;exitDx=0;exitDy=5;exitPerimeter=0;" edge="1" target="jaTOSob7eUF27mEvSC8X-5" parent="1" source="jaTOSob7eUF27mEvSC8X-8">
          <mxGeometry relative="1" as="geometry">
            <mxPoint x="195" y="245" as="sourcePoint" />
          </mxGeometry>
        </mxCell>
        <mxCell id="jaTOSob7eUF27mEvSC8X-11" value="PP" style="shape=umlLifeline;perimeter=lifelinePerimeter;whiteSpace=wrap;html=1;container=1;dropTarget=0;collapsible=0;recursiveResize=0;outlineConnect=0;portConstraint=eastwest;newEdgeStyle={&quot;curved&quot;:0,&quot;rounded&quot;:0};" vertex="1" parent="1">
          <mxGeometry x="472" y="120" width="95" height="1040" as="geometry" />
        </mxCell>
        <mxCell id="jaTOSob7eUF27mEvSC8X-12" value="" style="html=1;points=[[0,0,0,0,5],[0,1,0,0,-5],[1,0,0,0,5],[1,1,0,0,-5]];perimeter=orthogonalPerimeter;outlineConnect=0;targetShapes=umlLifeline;portConstraint=eastwest;newEdgeStyle={&quot;curved&quot;:0,&quot;rounded&quot;:0};" vertex="1" parent="jaTOSob7eUF27mEvSC8X-11">
          <mxGeometry x="42.5" y="180" width="10" height="150" as="geometry" />
        </mxCell>
        <mxCell id="jaTOSob7eUF27mEvSC8X-35" value="" style="html=1;points=[[0,0,0,0,5],[0,1,0,0,-5],[1,0,0,0,5],[1,1,0,0,-5]];perimeter=orthogonalPerimeter;outlineConnect=0;targetShapes=umlLifeline;portConstraint=eastwest;newEdgeStyle={&quot;curved&quot;:0,&quot;rounded&quot;:0};" vertex="1" parent="jaTOSob7eUF27mEvSC8X-11">
          <mxGeometry x="42.5" y="590" width="10" height="80" as="geometry" />
        </mxCell>
        <mxCell id="jaTOSob7eUF27mEvSC8X-40" value="" style="html=1;points=[[0,0,0,0,5],[0,1,0,0,-5],[1,0,0,0,5],[1,1,0,0,-5]];perimeter=orthogonalPerimeter;outlineConnect=0;targetShapes=umlLifeline;portConstraint=eastwest;newEdgeStyle={&quot;curved&quot;:0,&quot;rounded&quot;:0};" vertex="1" parent="jaTOSob7eUF27mEvSC8X-11">
          <mxGeometry x="42.5" y="770" width="10" height="50" as="geometry" />
        </mxCell>
        <mxCell id="jaTOSob7eUF27mEvSC8X-44" value="Paid" style="html=1;verticalAlign=bottom;endArrow=open;dashed=1;endSize=8;curved=0;rounded=0;" edge="1" parent="jaTOSob7eUF27mEvSC8X-11" source="jaTOSob7eUF27mEvSC8X-40">
          <mxGeometry relative="1" as="geometry">
            <mxPoint x="-80" y="820" as="targetPoint" />
            <mxPoint x="42.5" y="809.5" as="sourcePoint" />
            <Array as="points">
              <mxPoint x="-15" y="820" />
            </Array>
          </mxGeometry>
        </mxCell>
        <mxCell id="jaTOSob7eUF27mEvSC8X-42" value="Service Charges&amp;nbsp;" style="html=1;verticalAlign=bottom;endArrow=block;curved=0;rounded=0;" edge="1" parent="jaTOSob7eUF27mEvSC8X-11" target="jaTOSob7eUF27mEvSC8X-40">
          <mxGeometry x="0.0612" relative="1" as="geometry">
            <mxPoint x="-80" y="780" as="sourcePoint" />
            <mxPoint x="45" y="780" as="targetPoint" />
            <Array as="points">
              <mxPoint x="-25" y="780" />
            </Array>
            <mxPoint as="offset" />
          </mxGeometry>
        </mxCell>
        <mxCell id="jaTOSob7eUF27mEvSC8X-15" value="Patient Identification" style="html=1;verticalAlign=bottom;endArrow=block;curved=0;rounded=0;entryX=0;entryY=0;entryDx=0;entryDy=5;entryPerimeter=0;" edge="1" parent="1" source="jaTOSob7eUF27mEvSC8X-5" target="jaTOSob7eUF27mEvSC8X-10">
          <mxGeometry relative="1" as="geometry">
            <mxPoint x="267" y="205" as="sourcePoint" />
            <mxPoint x="457" y="310" as="targetPoint" />
          </mxGeometry>
        </mxCell>
        <mxCell id="jaTOSob7eUF27mEvSC8X-18" value="If Plus" style="shape=umlFrame;whiteSpace=wrap;html=1;pointerEvents=0;" vertex="1" parent="1">
          <mxGeometry x="297" y="290" width="290" height="180" as="geometry" />
        </mxCell>
        <mxCell id="jaTOSob7eUF27mEvSC8X-19" value="Monthly/ Yearly charge" style="html=1;verticalAlign=bottom;endArrow=block;curved=0;rounded=0;" edge="1" parent="1">
          <mxGeometry y="10" relative="1" as="geometry">
            <mxPoint x="392" y="320" as="sourcePoint" />
            <mxPoint x="517" y="320" as="targetPoint" />
            <Array as="points">
              <mxPoint x="482" y="320" />
            </Array>
            <mxPoint as="offset" />
          </mxGeometry>
        </mxCell>
        <mxCell id="jaTOSob7eUF27mEvSC8X-21" value="Charged" style="html=1;verticalAlign=bottom;endArrow=open;dashed=1;endSize=8;curved=0;rounded=0;" edge="1" parent="1">
          <mxGeometry relative="1" as="geometry">
            <mxPoint x="392" y="410" as="targetPoint" />
            <mxPoint x="517" y="410" as="sourcePoint" />
            <Array as="points">
              <mxPoint x="477" y="410" />
            </Array>
          </mxGeometry>
        </mxCell>
        <mxCell id="jaTOSob7eUF27mEvSC8X-25" value="Insurance/Patient" style="shape=umlLifeline;perimeter=lifelinePerimeter;whiteSpace=wrap;html=1;container=1;dropTarget=0;collapsible=0;recursiveResize=0;outlineConnect=0;portConstraint=eastwest;newEdgeStyle={&quot;curved&quot;:0,&quot;rounded&quot;:0};" vertex="1" parent="1">
          <mxGeometry x="607" y="120" width="100" height="1040" as="geometry" />
        </mxCell>
        <mxCell id="jaTOSob7eUF27mEvSC8X-27" value="" style="html=1;points=[[0,0,0,0,5],[0,1,0,0,-5],[1,0,0,0,5],[1,1,0,0,-5]];perimeter=orthogonalPerimeter;outlineConnect=0;targetShapes=umlLifeline;portConstraint=eastwest;newEdgeStyle={&quot;curved&quot;:0,&quot;rounded&quot;:0};" vertex="1" parent="jaTOSob7eUF27mEvSC8X-25">
          <mxGeometry x="45" y="410" width="10" height="80" as="geometry" />
        </mxCell>
        <mxCell id="jaTOSob7eUF27mEvSC8X-33" value="If Basic/Plus Insurance" style="shape=umlFrame;whiteSpace=wrap;html=1;pointerEvents=0;width=170;height=20;" vertex="1" parent="1">
          <mxGeometry x="297" y="490" width="410" height="140" as="geometry" />
        </mxCell>
        <mxCell id="jaTOSob7eUF27mEvSC8X-24" value="Service Charges&amp;nbsp;" style="html=1;verticalAlign=bottom;endArrow=block;curved=0;rounded=0;exitX=1;exitY=0;exitDx=0;exitDy=5;exitPerimeter=0;" edge="1" parent="1" target="jaTOSob7eUF27mEvSC8X-25">
          <mxGeometry y="10" relative="1" as="geometry">
            <mxPoint x="392" y="535" as="sourcePoint" />
            <mxPoint x="517" y="565" as="targetPoint" />
            <Array as="points" />
            <mxPoint as="offset" />
          </mxGeometry>
        </mxCell>
        <mxCell id="jaTOSob7eUF27mEvSC8X-34" value="Paid" style="html=1;verticalAlign=bottom;endArrow=open;dashed=1;endSize=8;curved=0;rounded=0;exitX=0;exitY=1;exitDx=0;exitDy=-5;exitPerimeter=0;entryX=1;entryY=1;entryDx=0;entryDy=-5;entryPerimeter=0;" edge="1" parent="1" source="jaTOSob7eUF27mEvSC8X-27">
          <mxGeometry relative="1" as="geometry">
            <mxPoint x="392" y="605" as="targetPoint" />
            <mxPoint x="527" y="420" as="sourcePoint" />
            <Array as="points" />
          </mxGeometry>
        </mxCell>
        <mxCell id="jaTOSob7eUF27mEvSC8X-36" value="If Basic/Plus SelfPay" style="shape=umlFrame;whiteSpace=wrap;html=1;pointerEvents=0;width=170;height=20;" vertex="1" parent="1">
          <mxGeometry x="297" y="670" width="410" height="140" as="geometry" />
        </mxCell>
        <mxCell id="jaTOSob7eUF27mEvSC8X-37" value="Service Charges&amp;nbsp;" style="html=1;verticalAlign=bottom;endArrow=block;curved=0;rounded=0;exitX=1;exitY=0;exitDx=0;exitDy=5;exitPerimeter=0;" edge="1" parent="1" target="jaTOSob7eUF27mEvSC8X-35">
          <mxGeometry x="0.0612" relative="1" as="geometry">
            <mxPoint x="392" y="715" as="sourcePoint" />
            <mxPoint x="657" y="715" as="targetPoint" />
            <Array as="points" />
            <mxPoint as="offset" />
          </mxGeometry>
        </mxCell>
        <mxCell id="jaTOSob7eUF27mEvSC8X-39" value="Paid" style="html=1;verticalAlign=bottom;endArrow=open;dashed=1;endSize=8;curved=0;rounded=0;exitX=0;exitY=1;exitDx=0;exitDy=-5;exitPerimeter=0;entryX=1;entryY=1;entryDx=0;entryDy=-5;entryPerimeter=0;" edge="1" parent="1" source="jaTOSob7eUF27mEvSC8X-35">
          <mxGeometry relative="1" as="geometry">
            <mxPoint x="392" y="785" as="targetPoint" />
            <mxPoint x="527" y="600" as="sourcePoint" />
            <Array as="points" />
          </mxGeometry>
        </mxCell>
        <mxCell id="jaTOSob7eUF27mEvSC8X-41" value="If Basic/Plus Custom" style="shape=umlFrame;whiteSpace=wrap;html=1;pointerEvents=0;width=170;height=20;" vertex="1" parent="1">
          <mxGeometry x="180" y="830" width="585" height="260" as="geometry" />
        </mxCell>
        <mxCell id="jaTOSob7eUF27mEvSC8X-45" value="Payer Selection" style="html=1;verticalAlign=bottom;endArrow=block;curved=0;rounded=0;entryX=0;entryY=0;entryDx=0;entryDy=5;entryPerimeter=0;" edge="1" parent="1" source="jaTOSob7eUF27mEvSC8X-5">
          <mxGeometry x="-0.0833" relative="1" as="geometry">
            <mxPoint x="214" y="890" as="sourcePoint" />
            <mxPoint x="382" y="875" as="targetPoint" />
            <Array as="points" />
            <mxPoint as="offset" />
          </mxGeometry>
        </mxCell>
        <mxCell id="jaTOSob7eUF27mEvSC8X-46" value="If PP Selected" style="shape=umlFrame;whiteSpace=wrap;html=1;pointerEvents=0;width=70;height=40;" vertex="1" parent="1">
          <mxGeometry x="307" y="880" width="250" height="70" as="geometry" />
        </mxCell>
        <mxCell id="jaTOSob7eUF27mEvSC8X-47" value="If Insurance selected" style="shape=umlFrame;whiteSpace=wrap;html=1;pointerEvents=0;width=70;height=40;" vertex="1" parent="1">
          <mxGeometry x="307" y="980" width="420" height="70" as="geometry" />
        </mxCell>
        <mxCell id="jaTOSob7eUF27mEvSC8X-48" value="" style="html=1;points=[[0,0,0,0,5],[0,1,0,0,-5],[1,0,0,0,5],[1,1,0,0,-5]];perimeter=orthogonalPerimeter;outlineConnect=0;targetShapes=umlLifeline;portConstraint=eastwest;newEdgeStyle={&quot;curved&quot;:0,&quot;rounded&quot;:0};" vertex="1" parent="1">
          <mxGeometry x="652" y="990" width="10" height="50" as="geometry" />
        </mxCell>
        <mxCell id="jaTOSob7eUF27mEvSC8X-49" value="Service Charges&amp;nbsp;" style="html=1;verticalAlign=bottom;endArrow=block;curved=0;rounded=0;" edge="1" parent="1" target="jaTOSob7eUF27mEvSC8X-48">
          <mxGeometry x="-0.0385" relative="1" as="geometry">
            <mxPoint x="392" y="1000" as="sourcePoint" />
            <mxPoint x="652" y="1000" as="targetPoint" />
            <Array as="points">
              <mxPoint x="498" y="1000" />
            </Array>
            <mxPoint as="offset" />
          </mxGeometry>
        </mxCell>
        <mxCell id="jaTOSob7eUF27mEvSC8X-50" value="Paid" style="html=1;verticalAlign=bottom;endArrow=open;dashed=1;endSize=8;curved=0;rounded=0;" edge="1" parent="1" source="jaTOSob7eUF27mEvSC8X-48">
          <mxGeometry relative="1" as="geometry">
            <mxPoint x="392" y="1030" as="targetPoint" />
            <mxPoint x="580" y="1030" as="sourcePoint" />
            <Array as="points">
              <mxPoint x="522" y="1030" />
            </Array>
          </mxGeometry>
        </mxCell>
        <mxCell id="jaTOSob7eUF27mEvSC8X-51" value="Reciept" style="html=1;verticalAlign=bottom;endArrow=open;dashed=1;endSize=8;curved=0;rounded=0;exitX=0;exitY=1;exitDx=0;exitDy=-5;exitPerimeter=0;entryX=1;entryY=1;entryDx=0;entryDy=-5;entryPerimeter=0;" edge="1" parent="1" target="jaTOSob7eUF27mEvSC8X-5">
          <mxGeometry relative="1" as="geometry">
            <mxPoint x="147" y="1120" as="targetPoint" />
            <mxPoint x="382" y="1125" as="sourcePoint" />
            <Array as="points" />
          </mxGeometry>
        </mxCell>
        <mxCell id="jaTOSob7eUF27mEvSC8X-52" value="Reciept" style="html=1;verticalAlign=bottom;endArrow=open;dashed=1;endSize=8;curved=0;rounded=0;exitX=0;exitY=1;exitDx=0;exitDy=-5;exitPerimeter=0;entryX=1;entryY=1;entryDx=0;entryDy=-5;entryPerimeter=0;" edge="1" parent="1" source="jaTOSob7eUF27mEvSC8X-5" target="jaTOSob7eUF27mEvSC8X-8">
          <mxGeometry relative="1" as="geometry">
            <mxPoint x="80" y="1190" as="targetPoint" />
            <mxPoint x="200" y="1190" as="sourcePoint" />
            <Array as="points" />
          </mxGeometry>
        </mxCell>
      </root>
    </mxGraphModel>
  </diagram>
</mxfile>
